<?xml version="1.0" encoding="UTF-8"?>
<svg width="1200" height="630" viewBox="0 0 1200 630" xmlns="http://www.w3.org/2000/svg">
  <title>Xarticle - Open Graph Image</title>
  <defs>
    <!-- Modern gradient background -->
    <linearGradient id="modernBg" x1="0%" y1="0%" x2="100%" y2="100%">
      <stop offset="0%" style="stop-color:#f8fafc;stop-opacity:1" />
      <stop offset="50%" style="stop-color:#f1f5f9;stop-opacity:1" />
      <stop offset="100%" style="stop-color:#e2e8f0;stop-opacity:1" />
    </linearGradient>
    
    <!-- Subtle grid pattern -->
    <pattern id="subtleGrid" width="60" height="60" patternUnits="userSpaceOnUse">
      <path d="M 60 0 L 0 0 0 60" fill="none" stroke="#e2e8f0" stroke-width="0.5" opacity="0.4"/>
    </pattern>
    
    <!-- Logo clipping path -->
    <clipPath id="clipTop"><rect x="0" y="0" width="400" height="200"/></clipPath>
    
    <!-- Soft shadow filter -->
    <filter id="softShadow" x="-20%" y="-20%" width="140%" height="140%">
      <feDropShadow dx="0" dy="4" stdDeviation="8" flood-color="#000000" flood-opacity="0.1"/>
    </filter>
  </defs>
  
  <!-- Background -->
  <rect width="1200" height="630" fill="url(#modernBg)"/>
  
  <!-- Subtle grid overlay -->
  <rect width="1200" height="630" fill="url(#subtleGrid)"/>
  
  <!-- Logo with correct two-tone design -->
  <g transform="translate(400, 140) scale(0.285)" filter="url(#softShadow)">
    <!-- Bottom layer: all arms in cream -->
    <rect x="190.00" y="620.00" width="1020.00" height="160.00" rx="35.00" ry="35.00" transform="rotate(0 700.0 700.0)" fill="#F2ECE1" />
    <rect x="210.00" y="620.00" width="980.00" height="160.00" rx="35.00" ry="35.00" transform="rotate(45 700.0 700.0)" fill="#F2ECE1" />
    <rect x="230.00" y="620.00" width="940.00" height="160.00" rx="35.00" ry="35.00" transform="rotate(90 700.0 700.0)" fill="#F2ECE1" />
    <rect x="210.00" y="620.00" width="980.00" height="160.00" rx="35.00" ry="35.00" transform="rotate(135 700.0 700.0)" fill="#F2ECE1" />
    <rect x="190.00" y="620.00" width="1020.00" height="160.00" rx="35.00" ry="35.00" transform="rotate(180 700.0 700.0)" fill="#F2ECE1" />
    <rect x="210.00" y="620.00" width="980.00" height="160.00" rx="35.00" ry="35.00" transform="rotate(225 700.0 700.0)" fill="#F2ECE1" />
    <rect x="230.00" y="620.00" width="940.00" height="160.00" rx="35.00" ry="35.00" transform="rotate(270 700.0 700.0)" fill="#F2ECE1" />
    <rect x="210.00" y="620.00" width="980.00" height="160.00" rx="35.00" ry="35.00" transform="rotate(315 700.0 700.0)" fill="#F2ECE1" />

    <!-- Top overlay: all arms in green, clipped to top half -->
    <g clip-path="url(#clipTop)">
      <rect x="190.00" y="620.00" width="1020.00" height="160.00" rx="35.00" ry="35.00" transform="rotate(0 700.0 700.0)" fill="#2F6F50" />
      <rect x="210.00" y="620.00" width="980.00" height="160.00" rx="35.00" ry="35.00" transform="rotate(45 700.0 700.0)" fill="#2F6F50" />
      <rect x="230.00" y="620.00" width="940.00" height="160.00" rx="35.00" ry="35.00" transform="rotate(90 700.0 700.0)" fill="#2F6F50" />
      <rect x="210.00" y="620.00" width="980.00" height="160.00" rx="35.00" ry="35.00" transform="rotate(135 700.0 700.0)" fill="#2F6F50" />
      <rect x="190.00" y="620.00" width="1020.00" height="160.00" rx="35.00" ry="35.00" transform="rotate(180 700.0 700.0)" fill="#2F6F50" />
      <rect x="210.00" y="620.00" width="980.00" height="160.00" rx="35.00" ry="35.00" transform="rotate(225 700.0 700.0)" fill="#2F6F50" />
      <rect x="230.00" y="620.00" width="940.00" height="160.00" rx="35.00" ry="35.00" transform="rotate(270 700.0 700.0)" fill="#2F6F50" />
      <rect x="210.00" y="620.00" width="980.00" height="160.00" rx="35.00" ry="35.00" transform="rotate(315 700.0 700.0)" fill="#2F6F50" />
    </g>

    <!-- Final pass: center horizontal arms fully green -->
    <rect x="190.00" y="620.00" width="1020.00" height="160.00" rx="35.00" ry="35.00" transform="rotate(0 700.0 700.0)" fill="#2F6F50" />
    <rect x="190.00" y="620.00" width="1020.00" height="160.00" rx="35.00" ry="35.00" transform="rotate(180 700.0 700.0)" fill="#2F6F50" />
  </g>
  
  <!-- Site name -->
  <text x="600" y="420" font-family="-apple-system, BlinkMacSystemFont, 'Segoe UI', Roboto, sans-serif" font-size="64" font-weight="800" fill="#2F6F50" text-anchor="middle">Xarticle</text>
  
  <!-- Tagline with different font and position -->
  <text x="600" y="520" font-family="Georgia, 'Times New Roman', serif" font-size="24" font-weight="400" fill="#64748b" text-anchor="middle" font-style="italic">Discover Amazing Articles</text>
  
  <!-- Decorative elements -->
  <circle cx="300" cy="500" r="3" fill="#2F6F50" opacity="0.3"/>
  <circle cx="900" cy="500" r="3" fill="#2F6F50" opacity="0.3"/>
  <line x1="320" y1="500" x2="880" y2="500" stroke="#2F6F50" stroke-width="1" opacity="0.2"/>
</svg>